<svg width="34" height="19" viewBox="0 0 34 19" fill="none" xmlns="http://www.w3.org/2000/svg">
<path d="M32.4229 0C33.0644 0 33.5845 0.520069 33.5845 1.16161C33.5845 1.80314 33.0644 2.32321 32.4229 2.32321H1.16161C0.520069 2.32321 0 1.80314 0 1.16161C0 0.520069 0.520069 0 1.16161 0H32.4229Z" fill="#E0E0E0"/>
<path d="M22.9031 8.33731C23.5447 8.33731 24.0647 8.85738 24.0647 9.49892C24.0647 10.1405 23.5447 10.6605 22.9031 10.6605H1.16161C0.520069 10.6605 0 10.1405 0 9.49892C0 8.85738 0.520069 8.33731 1.16161 8.33731H22.9031Z" fill="#E0E0E0"/>
<path d="M32.4229 16.6746C33.0644 16.6746 33.5845 17.1947 33.5845 17.8362C33.5845 18.4778 33.0644 18.9978 32.4229 18.9978H1.16161C0.520069 18.9978 0 18.4778 0 17.8362C0 17.1947 0.520069 16.6746 1.16161 16.6746H32.4229Z" fill="#E0E0E0"/>
</svg>
