<svg width="65" height="65" viewBox="0 0 65 65" fill="none" xmlns="http://www.w3.org/2000/svg">
<path d="M48.7498 43.333V29.7913C48.7498 21.4768 44.3081 14.5163 36.5623 12.6747V10.833C36.5623 8.58509 34.7206 6.77051 32.4727 6.77051C30.2248 6.77051 28.4373 8.58509 28.4373 10.833V12.6747C20.6644 14.5163 16.2498 21.4497 16.2498 29.7913V43.333L12.7289 46.8268C11.0227 48.533 12.2144 51.458 14.6248 51.458H50.2935C52.7039 51.458 53.9227 48.533 52.2164 46.8268L48.7498 43.333ZM32.4727 59.583C35.4519 59.583 37.8894 57.1455 37.8894 54.1663H27.056C27.056 57.1455 29.4664 59.583 32.4727 59.583ZM18.3352 12.8101C19.4727 11.7809 19.4998 10.0205 18.4164 8.93717C17.3873 7.90801 15.7081 7.88092 14.6519 8.88301C10.0206 13.108 6.82478 18.8497 5.79561 25.2955C5.55186 26.9476 6.82478 28.4372 8.50394 28.4372C9.80394 28.4372 10.9414 27.4893 11.1581 26.1893C11.9706 20.9351 14.5706 16.2497 18.3352 12.8101ZM50.3748 8.88301C49.2915 7.88092 47.6123 7.90801 46.5831 8.93717C45.4998 10.0205 45.5539 11.7538 46.6644 12.783C50.4019 16.2226 53.0289 20.908 53.8414 26.1622C54.031 27.4622 55.1685 28.4101 56.4956 28.4101C58.1477 28.4101 59.4477 26.9205 59.1769 25.2684C58.1477 18.8497 54.979 13.1351 50.3748 8.88301Z" fill="#E345E6"/>
</svg>
