<svg width="70" height="70" viewBox="0 0 70 70" fill="none" xmlns="http://www.w3.org/2000/svg">
<path d="M35.0002 5.83301C18.9002 5.83301 5.8335 18.8997 5.8335 34.9997C5.8335 51.0997 18.9002 64.1663 35.0002 64.1663C51.1002 64.1663 64.1668 51.0997 64.1668 34.9997C64.1668 18.8997 51.1002 5.83301 35.0002 5.83301ZM35.0002 58.333C22.1377 58.333 11.6668 47.8622 11.6668 34.9997C11.6668 22.1372 22.1377 11.6663 35.0002 11.6663C47.8627 11.6663 58.3335 22.1372 58.3335 34.9997C58.3335 47.8622 47.8627 58.333 35.0002 58.333Z" fill="#E345E6"/>
<path d="M30.5031 30.0636C30.3127 30.1598 30.1581 30.3145 30.0618 30.5048L21.7903 46.8661C21.3547 47.7278 22.2723 48.6454 23.134 48.2097L39.4966 39.9371C39.687 39.8408 39.8416 39.6862 39.9378 39.4958L48.2093 23.1345C48.6449 22.2728 47.7274 21.3553 46.8657 21.7909L30.5031 30.0636ZM34.9998 37.3946C33.6741 37.3946 32.6049 36.3498 32.6049 35.0003C32.6049 33.6944 33.6741 32.606 34.9998 32.606C36.3256 32.606 37.3948 33.6508 37.3948 35.0003C37.3948 36.3063 36.3256 37.3946 34.9998 37.3946Z" fill="#E345E6"/>
</svg>
