<svg width="65" height="65" viewBox="0 0 65 65" fill="none" xmlns="http://www.w3.org/2000/svg">
<path d="M29.7915 18.9587H35.2082V24.3753H29.7915V18.9587ZM32.4998 46.042C33.9894 46.042 35.2082 44.8232 35.2082 43.3337V32.5003C35.2082 31.0107 33.9894 29.792 32.4998 29.792C31.0103 29.792 29.7915 31.0107 29.7915 32.5003V43.3337C29.7915 44.8232 31.0103 46.042 32.4998 46.042ZM32.4998 5.41699C17.5498 5.41699 5.4165 17.5503 5.4165 32.5003C5.4165 47.4503 17.5498 59.5837 32.4998 59.5837C47.4498 59.5837 59.5832 47.4503 59.5832 32.5003C59.5832 17.5503 47.4498 5.41699 32.4998 5.41699ZM32.4998 54.167C20.5561 54.167 10.8332 44.4441 10.8332 32.5003C10.8332 20.5566 20.5561 10.8337 32.4998 10.8337C44.4436 10.8337 54.1665 20.5566 54.1665 32.5003C54.1665 44.4441 44.4436 54.167 32.4998 54.167Z" fill="#E345E6"/>
</svg>
